inDegrees=yes
name=ik_S42_A02_T02
DataType=double
version=3
OpenSimVersion=4.3-2021-08-27-4bc7ad9
endheader
time	pelvis_tilt	pelvis_list	pelvis_rotation	pelvis_tx	pelvis_ty	pelvis_tz	hip_flexion_r	hip_adduction_r	hip_rotation_r	knee_angle_r	knee_angle_r_beta	ankle_angle_r	subtalar_angle_r	mtp_angle_r	hip_flexion_l	hip_adduction_l	hip_rotation_l	knee_angle_l	knee_angle_l_beta	ankle_angle_l	subtalar_angle_l	mtp_angle_l	lumbar_extension	lumbar_bending	lumbar_rotation	arm_flex_r	arm_add_r	arm_rot_r	elbow_flex_r	pro_sup_r	wrist_flex_r	wrist_dev_r	arm_flex_l	arm_add_l	arm_rot_l	elbow_flex_l	pro_sup_l	wrist_flex_l	wrist_dev_l
39.30000000000054	3.046740881335432	-4.888907723085061	93.57279434560277	0	0.9399999999999999	0	15.44207159953418	7.457274025462058	-6.062673047282094	8.337469696780255	0.1455162974940687	0	0	0	-0.5636202749774146	-2.284332275564952	-7.618570544523657	26.41855147602511	0.4610907068642459	0	0	0	0	0	0	38.8278780818152	-38.8278780818152	4.849800973958669	82.96828509603777	85.15019929416695	0	0	38.8278780818152	-38.8278780818152	4.849800973958669	82.96828509603777	85.15019929413859	0	0
39.32000000000055	2.917225063065864	-5.028803527846355	93.72006678243913	0	0.9399999999999999	0	16.33684859807279	7.217491634406479	-6.084565950420743	8.130591034343039	0.1419055836824174	0	0	0	-0.2781452841613897	-1.741950409585678	-6.987798512858263	23.26861070535371	0.4061138691732224	0	0	0	0	0	0	38.82952918442064	-38.82952918442064	4.849881454294135	82.96937422641967	85.15011881383515	0	0	38.82952918442064	-38.82952918442064	4.849881454294135	82.96937422641967	85.15011881380677	0	0
39.34000000000055	2.722034432376436	-5.136581235868691	93.90175617457231	0	0.9399999999999999	0	17.21470748781301	6.96052023561581	-5.994570994410466	7.875085007821436	0.1374461622609275	0	0	0	-1.294221573531331	-0.7637489588996915	-8.085889610772016	20.32676441785197	0.3547689653687452	0	0	0	0	0	0	38.83234868364393	-38.83234868364393	4.850019178513687	82.97123803433921	85.14998108962185	0	0	38.83234868364393	-38.83234868364393	4.850019178513687	82.97123803433921	85.1499810895935	0	0
39.36000000000055	2.477077228596551	-5.184045543436513	94.12699746062721	0	0.9399999999999999	0	18.12133601431298	6.604754846922217	-5.63670836595635	7.517823031200773	0.1312107644767139	0	0	0	-1.622072871093424	0.03996837101523999	-7.26616615975291	18.24007359901287	0.3183493401088666	0	0	0	0	0	0	38.83438890028491	-38.83438890028491	4.850118517136159	82.97258236780974	85.14988175100385	0	0	38.83438890028491	-38.83438890028491	4.850118517136159	82.97258236780974	85.14988175097551	0	0
39.38000000000056	2.168011336884037	-5.15141017058848	94.39528726906508	0	0.9399999999999999	0	18.95990831588434	6.067336623703022	-5.177064718167848	7.110820584121301	0.1241072317115031	0	0	0	-2.023780071284333	0.9585877283485484	-4.846606753183353	15.40077716709318	0.268794268931741	0	0	0	0	0	0	38.82528014459879	-38.82528014459879	4.849773988942058	82.96792164725525	85.15022627918304	0	0	38.82528014459879	-38.82528014459879	4.849773988942058	82.96792164725525	85.15022627915461	0	0
39.40000000000056	1.812229188204897	-5.147090074752199	94.75162762004398	0	0.9399999999999999	0	19.8072015128868	5.478025710397834	-4.793050962758281	6.737731582556816	0.1175956002312246	0	0	0	-1.877476592422035	1.564782024769056	-5.430336310396907	14.04808805038848	0.24518539008935	0	0	0	0	0	0	38.82728477753408	-38.82728477753408	4.849872154354717	82.96925011510564	85.15012811377491	0	0	38.82728477753408	-38.82728477753408	4.849872154354717	82.96925011510564	85.15012811374648	0	0
39.42000000000056	1.62159341617175	-5.138052061780206	94.93290756865387	0	0.9399999999999999	0	20.60944621663847	4.981328323386504	-4.37664855071205	6.355807173760273	0.1109297618039921	0	0	0	-1.283161566369534	1.92490016782274	-7.497341416986925	13.9379482881702	0.2432630886012775	0	0	0	0	0	0	38.83737142380241	-38.83737142380241	4.850303155672224	82.97508172473836	85.14969711247655	0	0	38.83737142380241	-38.83737142380241	4.850303155672224	82.97508172473836	85.14969711244818	0	0
39.44000000000057	1.287364876234055	-5.106477258771715	95.30326755732213	0	0.9399999999999999	0	21.3997603930475	4.222324021751096	-4.331169180164894	6.047176969385706	0.1055431485665529	0	0	0	-0.8049118271023312	2.460783552796162	-7.5748368865372	13.74938718215381	0.2399720764600893	0	0	0	0	0	0	38.83780194048885	-38.83780194048885	4.85032409216032	82.97536505411205	85.1496761759894	0	0	38.83780194048885	-38.83780194048885	4.85032409216032	82.97536505411205	85.14967617596105	0	0
39.46000000000057	0.9497010309783173	-5.073881488772857	95.60861175686158	0	0.9399999999999999	0	22.10042399091229	3.502002672250335	-4.384435412338481	6.034478450001836	0.1053215175931761	0	0	0	-0.4464551415841612	3.325399391108627	-6.646214071096228	12.89883092395528	0.225127069281082	0	0	0	0	0	0	38.83920166623241	-38.83920166623241	4.850392407883522	82.97628956149242	85.1496078602693	0	0	38.83920166623241	-38.83920166623241	4.850392407883522	82.97628956149242	85.14960786024096	0	0
39.48000000000057	0.2302559055501303	-4.947676311015783	95.9331596924073	0	0.9399999999999999	0	22.68927636822297	2.36580030089802	-4.734058637122247	5.673731582745087	0.09902529699329086	0	0	0	-0.1112699832235817	4.440948171806909	-5.723882058957009	12.16590410691476	0.2123350831475628	0	0	0	0	0	0	38.84102709686734	-38.84102709686734	4.850481572020009	82.97749620842298	85.14951869613689	0	0	38.84102709686734	-38.84102709686734	4.850481572020009	82.97749620842298	85.14951869610854	0	0
39.50000000000058	0.2257394265095165	-4.952016788103012	95.9384064098777	0	0.9399999999999999	0	23.36743241094203	2.089409530630592	-5.503402210482428	5.401766187618449	0.09427860539684368	0	0	0	0.4619967614864404	4.996179899150321	-4.800524225553451	11.31471939107496	0.197479107313506	0	0	0	0	0	0	38.84273240789373	-38.84273240789373	4.850564915306799	82.97862408286306	85.1494353528539	0	0	38.84273240789373	-38.84273240789373	4.850564915306799	82.97862408286306	85.14943535282556	0	0
39.52000000000058	-0.1848577488225126	-4.943142138423963	95.89441955213212	0	0.9399999999999999	0	23.85726382479384	1.59368760584947	-6.2343334533278	5.14050619843038	0.0897187583817871	0	0	0	0.895022804674325	5.791922239427566	-4.235652827815706	11.48732340387431	0.2004916156390091	0	0	0	0	0	0	38.84331133460396	-38.84331133460396	4.850593154780371	82.97900624311872	85.14940711338159	0	0	38.84331133460396	-38.84331133460396	4.850593154780371	82.97900624311872	85.14940711335326	0	0
39.54000000000058	-0.9034444169210751	-4.82147281361953	95.38375130838287	0	0.9399999999999999	0	24.4580150948936	0.9822729859213369	-6.830213664786115	5.110588225986607	0.08919659125712233	0	0	0	1.330693363926373	6.85422185279964	-4.893796117611451	11.17967206551509	0.1951220868364736	0	0	0	0	0	0	38.84453053756338	-38.84453053756338	4.850652483054338	82.97980912007327	85.14934778511031	0	0	38.84453053756338	-38.84453053756338	4.850652483054338	82.97980912007327	85.14934778508201	0	0
39.56000000000058	-1.161389233932663	-4.716789509846864	94.98464320893302	0	0.9399999999999999	0	24.2895796945339	0.9200827439437955	-6.543791273573867	4.167185659913866	0.07273111030738963	0	0	0	1.722459054129306	7.183824738882047	-5.510886220664147	11.48807836814752	0.2005047922513115	0	0	0	0	0	0	38.84607738640692	-38.84607738640692	4.850727743169315	82.9808275992719	85.14927252499878	0	0	38.84607738640692	-38.84607738640692	4.850727743169315	82.9808275992719	85.14927252497048	0	0
39.58000000000059	-1.269184351530044	-4.707343076429455	94.75998991060065	0	0.9399999999999999	0	24.2206836215513	0.9309980220582951	-6.465065143535432	3.18954482118404	0.05566805876959529	0	0	0	2.340181596849037	7.756131663155278	-4.663807413060935	10.24254956231806	0.1787662136611542	0	0	0	0	0	0	38.84839678434079	-38.84839678434079	4.850840800969279	82.98235758899598	85.14915946720396	0	0	38.84839678434079	-38.84839678434079	4.850840800969279	82.98235758899598	85.14915946717566	0	0
39.60000000000059	-1.270341295071914	-4.732258705374702	94.77755445519708	0	0.9399999999999999	0	24.6170044889543	0.8847553346618533	-7.113927910556936	2.824584616297174	0.04929830155556637	0	0	0	2.93353054973987	8.034199650445204	-3.868653728479744	10.01991466860422	0.1748805017360202	0	0	0	0	0	0	38.84896921176905	-38.84896921176905	4.850868704576526	82.98273520322155	85.149131563598	0	0	38.84896921176905	-38.84896921176905	4.850868704576526	82.98273520322155	85.14913156356971	0	0
39.62000000000059	-1.509260054085123	-4.702012465016511	93.70586557321366	0	0.9399999999999999	0	25.43906655649701	0.2362416347842675	-7.868450795386649	3.350369156295545	0.05847497293462176	0	0	0	3.62570436725575	8.289784103907861	-4.961305482141541	10.42662078998679	0.1819788626421617	0	0	0	0	0	0	38.86901426459244	-38.86901426459244	4.851701728821286	82.99400586160097	85.14829853938998	0	0	38.86901426459244	-38.86901426459244	4.851701728821286	82.99400586160097	85.14829853936185	0	0
39.6400000000006	-1.430286353385188	-4.514207480770524	93.36349652727596	0	0.9399999999999999	0	25.28533611983432	0.3905103176055014	-7.463411200386363	3.794995854234528	0.0662351727559273	0	0	0	4.120750027661829	8.540975286502174	-4.849926454126769	9.490412989226993	0.1656389540360482	0	0	0	0	0	0	38.87087508559602	-38.87087508559602	4.851792086552612	82.99522864504111	85.14820818166274	0	0	38.87087508559602	-38.87087508559602	4.851792086552612	82.99522864504111	85.14820818163463	0	0
39.6600000000006	-1.287824293905689	-4.285576903302778	93.06514224479962	0	0.9399999999999999	0	25.5030886221249	0.3242131141247926	-7.824544603447635	4.988355136179864	0.08706322138510873	0	0	0	5.090941289659073	8.6803997220666	-4.801010158643748	9.87633119834044	0.1723744974284778	0	0	0	0	0	0	38.87283788945858	-38.87283788945858	4.85188745157079	82.99651919086227	85.14811281664886	0	0	38.87283788945858	-38.87283788945858	4.85188745157079	82.99651919086227	85.14811281662075	0	0
39.6800000000006	-1.193023066092099	-4.145445514668641	92.94367843749461	0	0.9399999999999999	0	25.74480891179682	0.06583555057896259	-7.793874938153672	6.951743303744005	0.1213308094038011	0	0	0	5.462537813478583	8.769656846835442	-4.787003154332242	9.801922250582695	0.1710758162971607	0	0	0	0	0	0	38.87426932145474	-38.87426932145474	4.851956840002554	82.99745820064925	85.14804342822023	0	0	38.87426932145474	-38.87426932145474	4.851956840002554	82.99745820064925	85.14804342819214	0	0
